<svg width="48" height="48" viewBox="0 0 48 48" fill="none" xmlns="http://www.w3.org/2000/svg">
<path d="M10.3327 27.416H13.0207V29H8.28072V20.576H10.3327V27.416ZM17.9835 29.084C17.1915 29.084 16.4635 28.9 15.7995 28.532C15.1435 28.164 14.6195 27.652 14.2275 26.996C13.8435 26.332 13.6515 25.588 13.6515 24.764C13.6515 23.94 13.8435 23.2 14.2275 22.544C14.6195 21.888 15.1435 21.376 15.7995 21.008C16.4635 20.64 17.1915 20.456 17.9835 20.456C18.7755 20.456 19.4995 20.64 20.1555 21.008C20.8195 21.376 21.3395 21.888 21.7155 22.544C22.0995 23.2 22.2915 23.94 22.2915 24.764C22.2915 25.588 22.0995 26.332 21.7155 26.996C21.3315 27.652 20.8115 28.164 20.1555 28.532C19.4995 28.9 18.7755 29.084 17.9835 29.084ZM17.9835 27.212C18.6555 27.212 19.1915 26.988 19.5915 26.54C19.9995 26.092 20.2035 25.5 20.2035 24.764C20.2035 24.02 19.9995 23.428 19.5915 22.988C19.1915 22.54 18.6555 22.316 17.9835 22.316C17.3035 22.316 16.7595 22.536 16.3515 22.976C15.9515 23.416 15.7515 24.012 15.7515 24.764C15.7515 25.508 15.9515 26.104 16.3515 26.552C16.7595 26.992 17.3035 27.212 17.9835 27.212ZM29.0251 23.24C28.8731 22.96 28.6531 22.748 28.3651 22.604C28.0851 22.452 27.7531 22.376 27.3691 22.376C26.7051 22.376 26.1731 22.596 25.7731 23.036C25.3731 23.468 25.1731 24.048 25.1731 24.776C25.1731 25.552 25.3811 26.16 25.7971 26.6C26.2211 27.032 26.8011 27.248 27.5371 27.248C28.0411 27.248 28.4651 27.12 28.8091 26.864C29.1611 26.608 29.4171 26.24 29.5771 25.76H26.9731V24.248H31.4371V26.156C31.2851 26.668 31.0251 27.144 30.6571 27.584C30.2971 28.024 29.8371 28.38 29.2771 28.652C28.7171 28.924 28.0851 29.06 27.3811 29.06C26.5491 29.06 25.8051 28.88 25.1491 28.52C24.5011 28.152 23.9931 27.644 23.6251 26.996C23.2651 26.348 23.0851 25.608 23.0851 24.776C23.0851 23.944 23.2651 23.204 23.6251 22.556C23.9931 21.9 24.5011 21.392 25.1491 21.032C25.7971 20.664 26.5371 20.48 27.3691 20.48C28.3771 20.48 29.2251 20.724 29.9131 21.212C30.6091 21.7 31.0691 22.376 31.2931 23.24H29.0251ZM36.5577 29.084C35.7657 29.084 35.0377 28.9 34.3737 28.532C33.7177 28.164 33.1937 27.652 32.8017 26.996C32.4177 26.332 32.2257 25.588 32.2257 24.764C32.2257 23.94 32.4177 23.2 32.8017 22.544C33.1937 21.888 33.7177 21.376 34.3737 21.008C35.0377 20.64 35.7657 20.456 36.5577 20.456C37.3497 20.456 38.0737 20.64 38.7297 21.008C39.3937 21.376 39.9137 21.888 40.2897 22.544C40.6737 23.2 40.8657 23.94 40.8657 24.764C40.8657 25.588 40.6737 26.332 40.2897 26.996C39.9057 27.652 39.3857 28.164 38.7297 28.532C38.0737 28.9 37.3497 29.084 36.5577 29.084ZM36.5577 27.212C37.2297 27.212 37.7657 26.988 38.1657 26.54C38.5737 26.092 38.7777 25.5 38.7777 24.764C38.7777 24.02 38.5737 23.428 38.1657 22.988C37.7657 22.54 37.2297 22.316 36.5577 22.316C35.8777 22.316 35.3337 22.536 34.9257 22.976C34.5257 23.416 34.3257 24.012 34.3257 24.764C34.3257 25.508 34.5257 26.104 34.9257 26.552C35.3337 26.992 35.8777 27.212 36.5577 27.212Z" fill="#6F36BC"/>
<circle cx="24" cy="24" r="22" stroke="#6F36BC" stroke-width="4"/>
</svg>
